<svg width="36" height="36" viewBox="0 0 36 36" fill="none" xmlns="http://www.w3.org/2000/svg">
<path d="M23.4 34H12.6C8.29726 34 5.80563 33.1272 4.33921 31.6608C2.8728 30.1944 2 27.7027 2 23.4V12.6C2 8.29726 2.8728 5.80563 4.33921 4.33921C5.80563 2.8728 8.29726 2 12.6 2H23.4C27.7027 2 30.1944 2.8728 31.6608 4.33921C33.1272 5.80563 34 8.29726 34 12.6V23.4C34 27.7027 33.1272 30.1944 31.6608 31.6608C30.1944 33.1272 27.7027 34 23.4 34Z" fill="#197EC6" stroke="#197EC6" stroke-width="4" stroke-linecap="round" stroke-linejoin="round"/>
<path d="M8 23L13.0963 16.7951C13.8244 15.9116 15.1734 15.751 16.1156 16.4337L20.0342 19.3253C20.9764 20.008 22.3255 19.8473 23.0536 18.9839L28 13" stroke="white" stroke-width="4" stroke-linecap="round" stroke-linejoin="round"/>
</svg>
