<svg width="92" height="92" viewBox="0 0 92 92" fill="none" xmlns="http://www.w3.org/2000/svg">
<path fill-rule="evenodd" clip-rule="evenodd" d="M0.93335 45.5667C0.93335 33.4993 5.72709 21.9262 14.26 13.3933C22.7929 4.86039 34.366 0.0666504 46.4333 0.0666504C58.5007 0.0666504 70.0738 4.86039 78.6067 13.3933C87.1396 21.9262 91.9333 33.4993 91.9333 45.5667C91.9333 57.634 87.1396 69.2071 78.6067 77.74C70.0738 86.2729 58.5007 91.0667 46.4333 91.0667C34.366 91.0667 22.7929 86.2729 14.26 77.74C5.72709 69.2071 0.93335 57.634 0.93335 45.5667ZM43.8368 65.0406L70.0327 32.2928L65.3007 28.5072L42.9632 56.4199L27.1413 43.237L23.2587 47.8962L43.8368 65.0406Z" fill="#00CC9C"/>
</svg>
