<svg width="120" height="120" viewBox="0 0 120 120" fill="none" xmlns="http://www.w3.org/2000/svg">
<circle cx="60" cy="60" r="60" fill="white"/>
<g clip-path="url(#clip0_771_448)">
<path fill-rule="evenodd" clip-rule="evenodd" d="M8 59.5C8 45.5761 13.5312 32.2226 23.3769 22.3769C33.2226 12.5312 46.5761 7 60.5 7C74.4239 7 87.7774 12.5312 97.6231 22.3769C107.469 32.2226 113 45.5761 113 59.5C113 73.4239 107.469 86.7774 97.6231 96.6231C87.7774 106.469 74.4239 112 60.5 112C46.5761 112 33.2226 106.469 23.3769 96.6231C13.5312 86.7774 8 73.4239 8 59.5ZM57.504 81.97L87.73 44.184L82.27 39.816L56.496 72.023L38.24 56.812L33.76 62.188L57.504 81.97Z" fill="#025E49"/>
</g>
<defs>
<clipPath id="clip0_771_448">
<rect width="105" height="105" fill="white" transform="translate(8 7)"/>
</clipPath>
</defs>
</svg>
