<svg width="36" height="36" viewBox="0 0 36 36" fill="none" xmlns="http://www.w3.org/2000/svg">
<g clip-path="url(#clip0_11_2)">
<mask id="path-1-inside-1_11_2" fill="white">
<path d="M11 9C11.0233 5.08495 11.2088 2.96471 12.6866 1.58162C14.3767 0 17.0967 0 22.5366 0H24.46C29.8999 0 32.6201 0 34.31 1.58162C36 3.16325 36 5.70883 36 10.8V25.2C36 30.2911 36 32.8367 34.31 34.4183C32.6201 36 29.8999 36 24.46 36H22.5366C17.0967 36 14.3767 36 12.6866 34.4183C11.2088 33.0352 11.0233 30.915 11 27"/>
</mask>
<path d="M7.00007 8.9762C6.98693 11.1853 8.7671 12.9868 10.9762 12.9999C13.1853 13.0131 14.9868 11.2329 14.9999 9.0238L7.00007 8.9762ZM12.6866 1.58162L9.95346 -1.33894L9.95341 -1.33889L12.6866 1.58162ZM34.31 1.58162L31.5766 4.50202L31.5768 4.50217L34.31 1.58162ZM34.31 34.4183L31.5767 31.4978L31.5766 31.498L34.31 34.4183ZM12.6866 34.4183L9.95338 37.3388L9.95343 37.3389L12.6866 34.4183ZM14.9999 26.9762C14.9868 24.7671 13.1853 22.9869 10.9762 23.0001C8.7671 23.0132 6.98693 24.8147 7.00007 27.0238L14.9999 26.9762ZM14.9999 9.0238C15.0118 7.03269 15.0716 5.88317 15.223 5.11171C15.2905 4.76753 15.3576 4.60892 15.3858 4.55217C15.4046 4.5143 15.4092 4.51218 15.4199 4.50214L9.95341 -1.33889C8.42866 0.0880855 7.71607 1.82175 7.37275 3.57094C7.05613 5.18413 7.01152 7.05226 7.00007 8.9762L14.9999 9.0238ZM15.4198 4.50219C15.4293 4.4933 15.4634 4.45693 15.611 4.40011C15.7888 4.33166 16.116 4.24049 16.7048 4.16641C17.9681 4.00746 19.7107 4 22.5366 4V-4C19.9227 -4 17.5853 -4.00746 15.7061 -3.771C13.7375 -3.5233 11.6732 -2.94836 9.95346 -1.33894L15.4198 4.50219ZM22.5366 4H24.46V-4H22.5366V4ZM24.46 4C27.286 4 29.0286 4.00746 30.2919 4.16641C30.8807 4.2405 31.2079 4.33166 31.3857 4.4001C31.5332 4.45691 31.5672 4.49324 31.5766 4.50202L37.0433 -1.33877C35.3236 -2.94838 33.2592 -3.52331 31.2906 -3.771C29.4114 -4.00746 27.074 -4 24.46 -4V4ZM31.5768 4.50217C31.5834 4.50835 31.5934 4.51074 31.6252 4.58307C31.6715 4.68841 31.7563 4.93493 31.8294 5.44354C31.9903 6.56374 32 8.13381 32 10.8H40C40 8.37501 40.0097 6.12671 39.7481 4.30592C39.4659 2.34139 38.8005 0.305684 37.0432 -1.33892L31.5768 4.50217ZM32 10.8V25.2H40V10.8H32ZM32 25.2C32 27.8662 31.9903 29.4362 31.8294 30.5564C31.7563 31.065 31.6715 31.3115 31.6252 31.4169C31.5934 31.4892 31.5833 31.4916 31.5767 31.4978L37.0432 37.3389C38.8005 35.6942 39.4659 33.6586 39.7481 31.694C40.0097 29.8733 40 27.625 40 25.2H32ZM31.5766 31.498C31.5672 31.5068 31.5332 31.5431 31.3857 31.5999C31.2079 31.6683 30.8807 31.7595 30.2919 31.8336C29.0286 31.9925 27.286 32 24.46 32V40C27.074 40 29.4114 40.0075 31.2906 39.771C33.2592 39.5233 35.3236 38.9484 37.0434 37.3387L31.5766 31.498ZM24.46 32H22.5366V40H24.46V32ZM22.5366 32C19.7107 32 17.9681 31.9925 16.7048 31.8336C16.116 31.7595 15.7888 31.6683 15.611 31.5999C15.4634 31.5431 15.4294 31.5067 15.4199 31.4978L9.95343 37.3389C11.6732 38.9483 13.7374 39.5233 15.7061 39.771C17.5853 40.0075 19.9227 40 22.5366 40V32ZM15.4199 31.4979C15.4092 31.4878 15.4046 31.4857 15.3858 31.4478C15.3576 31.391 15.2905 31.2324 15.223 30.8882C15.0716 30.1168 15.0118 28.9673 14.9999 26.9762L7.00007 27.0238C7.01152 28.9477 7.05613 30.8158 7.37275 32.429C7.71607 34.1782 8.42866 35.9118 9.95338 37.3388L15.4199 31.4979Z" fill="#C7C7D2" mask="url(#path-1-inside-1_11_2)"/>
<path d="M19 18.5H2M2 18.5L6.57692 14M2 18.5L6.57692 23" stroke="#C7C7D2" stroke-width="4" stroke-linecap="round" stroke-linejoin="round"/>
</g>
<defs>
<clipPath id="clip0_11_2">
<rect width="36" height="36" fill="white"/>
</clipPath>
</defs>
</svg>
