<svg width="36" height="36" viewBox="0 0 36 36" fill="none" xmlns="http://www.w3.org/2000/svg">
<path d="M31.6227 6.15227L21.4744 0.769597C19.5311 -0.256532 16.4886 -0.256532 14.5453 0.769597L4.2988 6.18828C0.235551 8.70859 0 9.08664 0 13.1011V22.8764C0 26.8909 0.23555 27.2869 4.37731 29.8432L14.5257 35.2259C15.5071 35.748 16.7634 36 18 36C19.2367 36 20.4929 35.748 21.4548 35.2259L31.7012 29.8072C35.7645 27.2869 36 26.9089 36 22.8944V13.1011C36 9.08664 35.7645 8.70859 31.6227 6.15227ZM18 23.8485C14.4864 23.8485 11.6205 21.2201 11.6205 17.9977C11.6205 14.7753 14.4864 12.147 18 12.147C21.5136 12.147 24.3795 14.7753 24.3795 17.9977C24.3795 21.2201 21.5136 23.8485 18 23.8485Z" fill="#197EC6"/>
</svg>
