<svg width="36" height="36" viewBox="0 0 36 36" fill="none" xmlns="http://www.w3.org/2000/svg">
<path d="M14.5203 3.83698L14.5201 3.83709L11.2034 6.00838C11.2032 6.00851 11.203 6.00864 11.2028 6.00876C11.1893 6.01759 11.176 6.02637 11.1627 6.0351C10.8609 6.23313 10.6004 6.40412 10.311 6.55244C10.0416 6.69049 9.75693 6.80102 9.45423 6.91852C9.4178 6.93267 9.38112 6.94691 9.34417 6.96131L9.3412 6.96247L5.56518 8.42734L14.5203 3.83698ZM14.5203 3.83698C15.6582 3.09187 16.3796 2.62318 16.9689 2.32386C17.5113 2.0483 17.7869 2 18.0001 2C18.2105 2 18.4849 2.0477 19.029 2.32398C19.6192 2.62372 20.3422 3.09267 21.4828 3.83758C21.4832 3.83782 21.4835 3.83805 21.4839 3.83829L24.7771 5.99545C25.0557 6.18745 25.3448 6.36516 25.6431 6.52801L25.6891 6.55314L25.7364 6.57581C26.0435 6.72316 26.3586 6.85515 26.6801 6.97138L30.4362 8.42777M14.5203 3.83698L30.4362 8.42777M30.4362 8.42777C31.7326 8.93077 32.555 9.25272 33.1441 9.55722C33.6957 9.84235 33.8303 10.0093 33.8831 10.0897C33.9203 10.1473 33.9968 10.2761 33.9988 10.7673C34.001 11.3336 33.9097 12.0896 33.7508 13.3505L33.2921 16.9866C33.2884 17.0156 33.2846 17.0448 33.2809 17.0741C33.2427 17.3721 33.2029 17.6825 33.2029 18C33.2029 18.3175 33.2427 18.6278 33.2809 18.9258C33.2846 18.9551 33.2884 18.9843 33.2921 19.0134L33.7487 22.6487L33.7492 22.6526C33.9101 23.9128 34.002 24.6687 34 25.234C33.9981 25.7321 33.919 25.8551 33.8837 25.9094C33.8335 25.9865 33.7026 26.1533 33.145 26.4414C32.5551 26.7462 31.7321 27.0685 30.4355 27.5725C30.4353 27.5726 30.4352 27.5726 30.4351 27.5727L26.6591 29.0375L26.6561 29.0387C26.6191 29.0531 26.5825 29.0673 26.5461 29.0815C26.2434 29.199 25.9586 29.3095 25.6893 29.4476C25.3999 29.5959 25.1393 29.7669 24.8376 29.9649L24.7985 29.9906L24.7969 29.9916L21.4801 32.1629L21.48 32.163C20.3425 32.9079 19.6204 33.3767 19.0309 33.676C18.4877 33.9519 18.2121 34 18.0001 34C17.7883 34 17.5133 33.952 16.9698 33.676C16.3798 33.3764 15.6573 32.9075 14.5173 32.1623C14.5172 32.1623 14.5171 32.1622 14.517 32.1621L11.2034 29.9916L11.2022 29.9909L11.1974 29.9877C10.8733 29.7751 10.6103 29.6025 10.3185 29.4514L10.3185 29.4514L10.311 29.4476C10.0451 29.3113 9.76281 29.2012 9.46569 29.0854C9.4271 29.0703 9.38827 29.0552 9.34919 29.0399L9.3428 29.0374L5.56407 27.5722C4.26765 27.0692 3.44529 26.7473 2.85617 26.4428C2.30452 26.1576 2.16995 25.9907 2.11716 25.9103C2.07992 25.8526 2.00344 25.7238 2.00148 25.2327C1.99923 24.6664 2.09054 23.9105 2.24944 22.6497C2.24945 22.6497 2.24946 22.6496 2.24947 22.6495L2.70817 19.0134C2.70819 19.0133 2.70821 19.0131 2.70823 19.0129C2.71035 18.9963 2.71246 18.9796 2.71458 18.963C2.75571 18.6396 2.79541 18.3275 2.79541 18C2.79541 17.6725 2.75571 17.3604 2.71457 17.037C2.71246 17.0204 2.71035 17.0037 2.70823 16.9871C2.70821 16.9869 2.70819 16.9867 2.70817 16.9866L2.24945 13.3503L2.24928 13.3489M30.4362 8.42777L2.24928 13.3489M2.24928 13.3489C2.0894 12.0884 1.99779 11.3324 2.00004 10.7667C2.00202 10.2681 2.08117 10.1449 2.11655 10.0906C2.16677 10.0135 2.29765 9.84673 2.85521 9.55863M2.24928 13.3489L2.85521 9.55863M2.85521 9.55863C3.44501 9.25387 4.26781 8.9316 5.56399 8.4278L2.85521 9.55863ZM18.0001 26.8474C20.5043 26.8474 22.9468 25.9663 24.7815 24.3374C26.624 22.7017 27.7127 20.4285 27.7127 18C27.7127 15.5715 26.624 13.2984 24.7815 11.6626C22.9468 10.0337 20.5043 9.15264 18.0001 9.15264C15.4959 9.15264 13.0534 10.0337 11.2187 11.6626C9.37625 13.2984 8.2876 15.5715 8.2876 18C8.2876 20.4285 9.37625 22.7017 11.2187 24.3374C13.0534 25.9663 15.496 26.8474 18.0001 26.8474Z" stroke="#C7C7D2" stroke-width="4"/>
</svg>
