<svg width="36" height="36" viewBox="0 0 36 36" fill="none" xmlns="http://www.w3.org/2000/svg">
<path d="M14.5203 3.83698L14.5201 3.83709L11.2034 6.00838C11.2031 6.00856 11.2028 6.00874 11.2026 6.00891C11.1892 6.01769 11.1759 6.02641 11.1627 6.03507C10.8609 6.23312 10.6004 6.40411 10.311 6.55244C10.0416 6.69049 9.75693 6.80102 9.45423 6.91853C9.4178 6.93267 9.38112 6.94691 9.34417 6.96131L9.3412 6.96247L5.56518 8.42734L14.5203 3.83698ZM14.5203 3.83698C15.6582 3.09187 16.3796 2.62318 16.9689 2.32386C17.5113 2.0483 17.7869 2 18.0001 2C18.2105 2 18.4849 2.0477 19.029 2.32398C19.6193 2.62373 20.3423 3.0927 21.4829 3.83766C21.4833 3.83787 21.4836 3.83808 21.4839 3.83829L24.7772 5.99548C25.0557 6.18747 25.3448 6.36517 25.6431 6.52801L25.6891 6.55314L25.7364 6.57581C26.0435 6.72316 26.3585 6.85514 26.6801 6.97137L30.4362 8.42777C30.4363 8.42782 30.4364 8.42787 30.4366 8.42793C31.7328 8.93084 32.555 9.25275 33.1441 9.55722C33.6956 9.84229 33.8302 10.0092 33.883 10.0896C33.9203 10.1473 33.9968 10.276 33.9988 10.7673C34.001 11.3336 33.9097 12.0896 33.7508 13.3505L33.2921 16.9866L14.5203 3.83698ZM2.24928 13.3489L2.24945 13.3503L2.70817 16.9866C2.70821 16.9869 2.70824 16.9871 2.70828 16.9874C2.7083 16.9876 2.70832 16.9878 2.70834 16.9879C2.71042 17.0043 2.7125 17.0206 2.71457 17.037C2.75571 17.3604 2.79541 17.6725 2.79541 18C2.79541 18.3275 2.75571 18.6396 2.71457 18.963C2.7125 18.9794 2.71042 18.9957 2.70834 19.0121C2.70832 19.0123 2.7083 19.0124 2.70828 19.0126C2.70824 19.0129 2.70821 19.0132 2.70817 19.0134L2.24947 22.6495C2.24946 22.6496 2.24945 22.6497 2.24944 22.6497C2.09054 23.9105 1.99923 24.6664 2.00148 25.2327C2.00344 25.7238 2.07992 25.8526 2.11716 25.9103C2.16995 25.9907 2.30453 26.1576 2.85617 26.4428C3.44529 26.7473 4.26765 27.0692 5.56407 27.5722L9.3428 29.0374L9.34919 29.0399C9.38825 29.0552 9.42707 29.0703 9.46563 29.0854C9.76278 29.2012 10.0451 29.3113 10.311 29.4476L10.3185 29.4514L10.3185 29.4514C10.6103 29.6025 10.8732 29.7751 11.1973 29.9877L11.2022 29.9909L11.2034 29.9916L14.517 32.1621C14.5171 32.1622 14.5172 32.1623 14.5173 32.1623C15.6573 32.9075 16.3798 33.3764 16.9698 33.676C17.5133 33.952 17.7883 34 18.0001 34C18.2121 34 18.4877 33.9519 19.0309 33.676C19.6204 33.3767 20.3425 32.9079 21.48 32.163L21.4801 32.1629L24.7969 29.9916L24.7985 29.9906L24.8376 29.9649C25.1393 29.7669 25.3999 29.5959 25.6893 29.4476C25.9586 29.3095 26.2433 29.199 26.546 29.0815C26.5824 29.0673 26.6191 29.0531 26.6561 29.0387L26.6591 29.0375L30.4351 27.5727L2.24928 13.3489ZM2.24928 13.3489C2.0894 12.0884 1.99779 11.3324 2.00004 10.7667C2.00202 10.2681 2.08117 10.1449 2.11655 10.0906C2.16677 10.0135 2.29765 9.84673 2.85521 9.55863M2.24928 13.3489L2.85521 9.55863M33.7492 22.6526L33.7487 22.6487L33.2921 19.0134C33.292 19.0128 33.2919 19.0122 33.2918 19.0116C33.2882 18.9831 33.2846 18.9546 33.2809 18.9258C33.2427 18.6279 33.2029 18.3175 33.2029 18C33.2029 17.6825 33.2427 17.3721 33.2809 17.0742C33.2846 17.0453 33.2883 17.0165 33.2919 16.9879L33.7492 22.6526ZM33.7492 22.6526C33.9101 23.9128 34.002 24.6687 34 25.234C33.9981 25.7321 33.919 25.8551 33.8837 25.9094C33.8335 25.9865 33.7026 26.1533 33.145 26.4414M33.7492 22.6526L33.145 26.4414M2.85521 9.55863C3.44501 9.25387 4.26781 8.9316 5.56398 8.4278L2.85521 9.55863ZM33.145 26.4414C32.5552 26.7461 31.7324 27.0684 30.4363 27.5722L33.145 26.4414ZM18.0001 26.8474C20.5043 26.8474 22.9468 25.9663 24.7815 24.3374C26.624 22.7017 27.7127 20.4285 27.7127 18C27.7127 15.5715 26.624 13.2984 24.7815 11.6626C22.9468 10.0337 20.5043 9.15264 18.0001 9.15264C15.496 9.15264 13.0534 10.0337 11.2187 11.6626C9.37625 13.2984 8.2876 15.5715 8.2876 18C8.2876 20.4285 9.37625 22.7017 11.2187 24.3374C13.0534 25.9663 15.496 26.8474 18.0001 26.8474Z" fill="#197EC6" stroke="#197EC6" stroke-width="4"/>
</svg>
