<svg width="36" height="36" viewBox="0 0 36 36" fill="none" xmlns="http://www.w3.org/2000/svg">
<path d="M14.8906 3.25833L14.8907 3.25832C17.0236 2.19049 17.5141 2 18 2C18.4859 2 18.9764 2.19049 21.1093 3.25833L21.1094 3.25835L26.0777 5.74569L30.9553 8.3743C30.9553 8.3743 30.9553 8.3743 30.9553 8.3743C31.9484 8.90949 32.574 9.24887 33.0272 9.54951C33.4513 9.83085 33.5773 9.98586 33.6376 10.0799C33.6907 10.1627 33.7641 10.3054 33.8172 10.7317C33.8768 11.2099 33.8906 11.842 33.9092 12.8917L33.9092 12.8917L33.9997 18L33.9092 23.1084C33.8906 24.1579 33.8768 24.7901 33.8172 25.2683C33.7641 25.6946 33.6907 25.8373 33.6376 25.92C33.5773 26.0141 33.4513 26.1691 33.0273 26.4504C32.5741 26.751 31.9484 27.0904 30.9554 27.6255L30.9553 27.6256L26.0777 30.2544L21.1094 32.7416L21.1093 32.7416C18.9763 33.8095 18.4858 34 18 34C17.5142 34 17.0237 33.8095 14.8907 32.7416L14.8906 32.7416L9.9223 30.2544L5.0448 27.6256L5.04468 27.6255C4.0516 27.0904 3.42594 26.751 2.97274 26.4504C2.54861 26.1691 2.42269 26.0141 2.3624 25.9201C2.30934 25.8374 2.23592 25.6946 2.18282 25.2683C2.12328 24.7901 2.10947 24.158 2.09092 23.1084L2.09092 23.1083L2.00031 18L2.09092 12.8917L2.09092 12.8916C2.10947 11.842 2.12328 11.2098 2.18282 10.7317C2.23591 10.3054 2.30933 10.1626 2.36244 10.0799C2.42272 9.98587 2.54862 9.83089 2.97276 9.54953C3.42598 9.24888 4.05164 8.9095 5.04474 8.3743L4.09593 6.61369L5.04476 8.3743L9.92232 5.74567L14.8906 3.25833Z" stroke="#CFCFD9" stroke-width="4"/>
<path d="M13 18C13 20.7614 15.2386 23 18 23C20.7614 23 23 20.7614 23 18C23 15.2386 20.7614 13 18 13C15.2386 13 13 15.2386 13 18Z" stroke="#CFCFD9" stroke-width="4"/>
</svg>
