<svg width="22" height="22" viewBox="0 0 22 22" fill="none" xmlns="http://www.w3.org/2000/svg">
<path d="M14.6799 13.587C18.1699 13.587 20.9999 10.769 20.9999 7.293C20.9999 3.817 18.1699 1 14.6799 1C11.1899 1 8.36293 3.818 8.36293 7.293C8.36293 8.903 9.09693 10.074 9.09693 10.074L1.45493 17.684C1.11193 18.026 0.631934 18.914 1.45493 19.734L2.33693 20.612C2.67993 20.905 3.54193 21.315 4.24693 20.612L5.27693 19.588C6.30493 20.612 7.48093 20.027 7.92193 19.441C8.65593 18.417 7.77493 17.392 7.77493 17.392L8.06893 17.099C9.47893 18.505 10.7139 17.685 11.1549 17.099C11.8899 16.075 11.1549 15.05 11.1549 15.05C10.8609 14.465 10.2729 14.465 11.0079 13.733L11.8899 12.855C12.5949 13.44 14.0449 13.587 14.6819 13.587H14.6799Z" stroke="white" stroke-width="1.5" stroke-linejoin="round"/>
<path d="M16.8851 7.29366C16.8837 7.87696 16.6508 8.43586 16.2375 8.84748C15.8242 9.25909 15.2644 9.48972 14.6811 9.48866C14.0977 9.48972 13.5379 9.25909 13.1246 8.84748C12.7113 8.43586 12.4784 7.87696 12.4771 7.29366C12.4776 7.00475 12.535 6.71878 12.646 6.45206C12.7571 6.18534 12.9196 5.94311 13.1242 5.7392C13.3289 5.53528 13.5717 5.37367 13.8388 5.26359C14.106 5.15352 14.3921 5.09713 14.6811 5.09766C14.97 5.09713 15.2561 5.15352 15.5233 5.26359C15.7904 5.37367 16.0332 5.53528 16.2379 5.7392C16.4425 5.94311 16.605 6.18534 16.7161 6.45206C16.8271 6.71878 16.8845 7.00475 16.8851 7.29366Z" stroke="white" stroke-width="1.5"/>
</svg>
