<svg width="24" height="33" viewBox="0 0 24 33" fill="none" xmlns="http://www.w3.org/2000/svg">
<path d="M3.29254 32.3225C2.48968 32.3225 1.80262 32.0296 1.23138 31.4437C0.66013 30.8578 0.37402 30.1526 0.373047 29.3282V14.3564C0.373047 13.533 0.659157 12.8283 1.23138 12.2424C1.8036 11.6565 2.49065 11.3631 3.29254 11.3621H4.75228V8.36771C4.75228 6.29662 5.46415 4.53145 6.88789 3.0722C8.31163 1.61296 10.0327 0.882835 12.051 0.881837C14.0694 0.880839 15.7909 1.61096 17.2156 3.0722C18.6403 4.53345 19.3517 6.29862 19.3497 8.36771V11.3621H20.8095C21.6123 11.3621 22.2999 11.6555 22.8721 12.2424C23.4443 12.8293 23.7299 13.534 23.729 14.3564V29.3282C23.729 30.1516 23.4434 30.8568 22.8721 31.4437C22.3009 32.0306 21.6133 32.3235 20.8095 32.3225H3.29254ZM3.29254 29.3282H20.8095V14.3564H3.29254V29.3282ZM12.051 24.8366C12.8539 24.8366 13.5414 24.5437 14.1136 23.9578C14.6859 23.3719 14.9715 22.6667 14.9705 21.8423C14.9695 21.0178 14.6839 20.3132 14.1136 19.7283C13.5434 19.1434 12.8558 18.8499 12.051 18.8479C11.2462 18.8459 10.5592 19.1394 9.98985 19.7283C9.42055 20.3172 9.13444 21.0218 9.13152 21.8423C9.1286 22.6627 9.41471 23.3679 9.98985 23.9578C10.565 24.5477 11.252 24.8406 12.051 24.8366ZM7.67177 11.3621H16.4302V8.36771C16.4302 7.12007 16.0045 6.05957 15.153 5.18621C14.3015 4.31286 13.2675 3.87619 12.051 3.87619C10.8346 3.87619 9.80057 4.31286 8.94905 5.18621C8.09753 6.05957 7.67177 7.12007 7.67177 8.36771V11.3621Z" fill="white"/>
</svg>
