<svg width="600" height="450" viewBox="0 0 323 190" fill="none" xmlns="http://www.w3.org/2000/svg">
<path d="M173.488 244.435L177.794 211.842L134.604 167.816C131.537 164.734 131.537 159.67 134.604 156.543L203.438 86.3771L176.398 59.1279C174.365 60.3784 171.981 61.0979 169.433 61.0979C166.398 61.0979 163.598 60.0775 161.344 58.3553L144.693 76.5121V108.609L113.322 141.789L117.704 146.483V182.404L132.83 199.247L132.86 199.245L173.488 244.435Z" fill="#197EC6"/>
<path d="M206.618 83.1358L179.819 56.1295C181.761 53.7482 182.928 50.6885 182.928 47.3508C182.928 39.7586 176.886 33.6038 169.433 33.6038C161.981 33.6038 155.939 39.7586 155.939 47.3508C155.939 50.1947 156.787 52.8369 158.239 55.0295L140.195 74.7049V106.761L110.219 138.465L104.353 132.18C106.142 129.847 107.208 126.912 107.208 123.723C107.208 116.131 101.166 109.976 93.7132 109.976C86.2604 109.976 80.2186 116.131 80.2186 123.723C80.2186 131.315 86.2604 137.47 93.7132 137.47C96.4114 137.47 98.9252 136.663 101.034 135.274L107.096 141.768L81.6048 168.73C79.4831 167.315 76.9461 166.492 74.2209 166.492C66.768 166.492 60.7262 172.646 60.7262 180.239C60.7262 187.831 66.768 193.986 74.2209 193.986C76.9206 193.986 79.4351 193.178 81.544 191.787L95.8281 207.054L131.037 204.001L171.864 249.414L167.58 252.926C165.239 250.936 162.226 249.737 158.938 249.737C151.485 249.737 145.443 255.892 145.443 263.484C145.443 271.077 151.485 277.231 158.938 277.231C166.39 277.231 172.432 271.077 172.432 263.484C172.432 260.896 171.73 258.474 170.508 256.407L174.908 252.8L199.304 279.936L169.033 310.793C165.966 313.919 161.041 313.919 157.974 310.793L15.0346 165.086C11.9676 161.96 11.9676 156.94 15.0346 153.813L156.895 9.2073C159.962 6.0809 164.886 6.0809 167.953 9.2073L218.019 60.2421C221.086 63.3685 221.086 68.3883 218.019 71.5147L206.618 83.1358Z" fill="#197EC6"/>
<path d="M74.2209 168.019C76.5412 168.019 78.7078 168.69 80.5431 169.852L77.3059 173.276C76.365 172.843 75.3207 172.601 74.2209 172.601C70.0803 172.601 66.7238 176.021 66.7238 180.239C66.7238 184.457 70.0803 187.876 74.2209 187.876C75.3064 187.876 76.338 187.641 77.2692 187.218L80.4891 190.66C78.6651 191.801 76.518 192.458 74.2209 192.458C67.596 192.458 62.2256 186.988 62.2256 180.239C62.2256 173.49 67.596 168.019 74.2209 168.019Z" fill="#197EC6"/>
<path d="M80.6426 184.182L83.8153 187.573C85.323 185.531 86.2159 182.991 86.2159 180.239C86.2159 177.51 85.338 174.99 83.8536 172.957L80.6636 176.331C81.3331 177.474 81.7177 178.81 81.7177 180.239C81.7177 181.681 81.3248 183.031 80.6426 184.182Z" fill="#197EC6"/>
<path d="M87.7159 180.239C87.7159 183.426 86.6506 186.361 84.8633 188.692L97.5963 202.302L127.175 199.737L113.206 184.183V148.314L110.199 145.092L84.9075 171.842C86.6686 174.165 87.7159 177.077 87.7159 180.239Z" fill="#197EC6"/>
<path d="M157.438 47.3508C157.438 49.7521 158.118 51.9915 159.293 53.8803L162.535 50.345C162.15 49.4256 161.937 48.4136 161.937 47.3508C161.937 43.133 165.293 39.7136 169.434 39.7136C173.574 39.7136 176.931 43.133 176.931 47.3508C176.931 49.0122 176.41 50.5495 175.526 51.803L178.749 55.0506C180.424 52.9492 181.429 50.2695 181.429 47.3508C181.429 40.6021 176.059 35.1313 169.434 35.1313C162.809 35.1313 157.438 40.6021 157.438 47.3508Z" fill="#197EC6"/>
<path d="M165.483 53.8427C166.63 54.5688 167.984 54.9881 169.433 54.9881C170.29 54.9881 171.112 54.842 171.878 54.5728L175.294 58.0152C173.561 59.0056 171.562 59.5704 169.433 59.5704C166.795 59.5704 164.355 58.7025 162.375 57.2317L165.483 53.8427Z" fill="#197EC6"/>
<path d="M105.708 123.723C105.708 126.476 104.815 129.016 103.307 131.059L100.137 127.662C100.818 126.512 101.21 125.164 101.21 123.723C101.21 119.505 97.8537 116.086 93.713 116.086C89.5724 116.086 86.216 119.505 86.216 123.723C86.216 127.941 89.5724 131.36 93.713 131.36C94.8001 131.36 95.8332 131.124 96.7658 130.701L99.9798 134.144C98.1565 135.285 96.0101 135.943 93.713 135.943C87.0879 135.943 81.7178 130.472 81.7178 123.723C81.7178 116.974 87.0879 111.504 93.713 111.504C100.338 111.504 105.708 116.974 105.708 123.723Z" fill="#197EC6"/>
<path d="M379.59 162.008C379.288 162.933 378.64 163.637 377.992 164.297C366.977 175.438 356.004 186.535 345.032 197.675C335.702 207.142 326.371 216.609 316.997 226.077C306.328 236.865 295.658 247.697 284.988 258.485C279.718 263.813 274.448 269.097 269.178 274.426C268.876 274.733 268.616 274.998 268.314 275.262C267.364 276.01 266.197 275.57 265.981 274.337C265.938 273.985 265.938 273.633 265.938 273.236C265.938 260.511 265.938 247.741 265.938 235.015C265.938 234.135 266.197 233.518 266.802 232.858C278.423 221.057 289.999 209.256 301.619 197.499C308.142 190.85 314.708 184.201 321.274 177.552C327.797 170.903 334.363 164.253 340.886 157.604C347.062 151.352 353.197 145.055 359.374 138.802C359.504 138.67 359.633 138.538 359.763 138.406C360.195 137.789 360.583 137.966 361.059 138.45C366.89 144.394 372.722 150.383 378.554 156.327C379.072 156.856 379.461 157.429 379.677 158.177C379.807 158.353 379.763 158.529 379.763 158.705C379.807 159.013 379.677 159.322 379.893 159.542C379.893 159.894 379.893 160.29 379.893 160.643C379.677 160.907 379.807 161.215 379.763 161.479C379.72 161.656 379.763 161.831 379.59 162.008Z" fill="#00CC9C"/>
<path d="M256.867 254.258C256.867 260.599 256.867 266.895 256.867 273.237C256.867 273.545 256.867 273.853 256.867 274.205C256.867 275.042 256.262 275.394 255.657 275.703C255.095 276.055 254.707 275.482 254.404 275.174C252.677 273.501 250.992 271.827 249.307 270.11C239.286 259.939 229.264 249.767 219.199 239.594C211.337 231.625 203.475 223.699 195.613 215.729C190.257 210.313 184.9 204.896 179.544 199.481C171.638 191.466 163.691 183.452 155.785 175.438C151.898 171.475 147.966 167.556 144.078 163.637C143.517 163.065 142.955 162.492 142.653 161.656C142.006 159.762 142.394 158.089 143.82 156.68C146.455 153.994 149.133 151.264 151.768 148.578C154.964 145.319 158.161 142.061 161.314 138.846C162.481 137.702 162.221 137.702 163.345 138.802C171.898 147.477 180.408 156.152 188.961 164.826C202.568 178.652 216.132 192.479 229.739 206.305C236.175 212.866 242.612 219.428 249.091 225.989C251.381 228.322 253.714 230.656 256.046 232.99C256.608 233.563 256.824 234.135 256.824 234.883C256.867 241.312 256.867 247.785 256.867 254.258Z" fill="#00CC9C"/>
<path d="M354.925 133.254C324.989 163.549 295.14 193.8 265.247 224.007C264.816 223.567 264.988 223.126 264.988 222.73C264.988 209.608 264.988 196.53 264.945 183.408C264.945 182.571 265.161 181.955 265.766 181.383C288.228 158.529 310.691 135.632 333.11 112.778C333.283 112.603 333.456 112.47 333.585 112.294C333.845 111.985 334.104 111.986 334.363 112.25C334.492 112.382 334.622 112.514 334.752 112.646C341.318 119.339 347.884 126.033 354.45 132.725C354.623 132.857 354.709 133.034 354.925 133.254Z" fill="#00CC9C"/>
<path d="M257.601 224.095C227.622 193.712 197.773 163.505 167.88 133.254C168.225 132.857 168.528 132.55 168.787 132.285C175.094 125.856 181.401 119.427 187.708 112.998C187.924 112.778 188.14 112.558 188.356 112.338C188.615 112.03 188.874 112.074 189.133 112.338C189.349 112.558 189.565 112.778 189.781 112.998C201.444 124.888 213.065 136.732 224.728 148.621C235.354 159.454 246.024 170.286 256.694 181.118C257.471 181.911 257.73 182.66 257.73 183.76C257.687 196.618 257.73 209.52 257.687 222.378C257.774 222.818 257.86 223.346 257.601 224.095Z" fill="#00CC9C"/>
<path d="M257.73 172.972C257.212 172.444 256.823 172.136 256.521 171.784C235.786 150.647 215.051 129.511 194.317 108.375C193.107 107.142 193.194 107.451 194.274 106.306C200.84 99.6567 207.406 93.0513 213.972 86.4023C214.792 85.566 214.792 85.6096 215.613 86.4023C224.08 94.8567 232.59 103.355 241.056 111.81C246.369 117.138 251.682 122.422 257.039 127.75C257.558 128.234 257.817 128.762 257.817 129.511C257.774 143.646 257.817 157.825 257.817 171.959C257.774 172.223 257.73 172.444 257.73 172.972Z" fill="#00CC9C"/>
<path d="M264.988 172.84C264.988 172.268 264.988 171.871 264.988 171.475C264.988 157.648 264.988 143.822 264.945 129.996C264.945 128.983 265.247 128.322 265.939 127.617C274.017 119.604 282.094 111.546 290.172 103.488C294.578 99.0839 298.984 94.7246 303.391 90.3209C304.686 89.0005 306.025 87.7671 307.322 86.4466C308.185 85.566 308.185 85.786 308.877 86.4901C309.136 86.7987 309.482 87.0629 309.741 87.3272C315.961 93.6241 322.224 99.9645 328.445 106.261C328.618 106.438 328.79 106.658 329.007 106.834C329.395 107.142 329.439 107.494 329.05 107.803C328.834 107.979 328.661 108.199 328.488 108.375C307.797 129.467 287.062 150.603 266.371 171.695C266.025 172.048 265.679 172.532 264.988 172.84Z" fill="#00CC9C"/>
<path d="M265.074 118.195C264.901 117.71 264.987 117.225 264.987 116.786C264.987 93.3599 264.987 69.9338 264.987 46.508C264.987 46.1558 264.987 45.7595 264.987 45.4072C264.987 44.9228 265.161 44.4824 265.635 44.3063C266.11 44.1302 266.586 44.1302 267.018 44.5265C267.191 44.6586 267.363 44.8348 267.493 45.0109C279.113 56.8559 290.733 68.7009 302.353 80.5018C302.44 80.5897 302.526 80.6783 302.656 80.8104C303.217 81.4267 303.217 81.4267 302.569 82.0873C301.446 83.1879 300.323 84.2884 299.199 85.3897C293.368 91.0702 287.493 96.75 281.662 102.431C276.348 107.583 271.078 112.734 265.765 117.886C265.592 117.975 265.463 118.195 265.074 118.195Z" fill="#00CC9C"/>
<path d="M257.515 118.239C244.901 105.997 232.288 93.7562 219.717 81.5145C219.89 80.986 220.236 80.766 220.538 80.4575C232.071 68.7008 243.648 56.8998 255.182 45.1429C255.355 44.9667 255.571 44.7466 255.744 44.5704C256.176 44.1301 256.694 44.0861 257.255 44.3503C257.731 44.5704 257.817 45.0108 257.774 45.4951C257.774 45.7594 257.774 46.0236 257.774 46.3318C257.774 69.8016 257.774 93.2712 257.774 116.785C257.774 117.225 257.774 117.71 257.774 118.15C257.688 118.15 257.601 118.195 257.515 118.239Z" fill="#00CC9C"/>
</svg>
